<svg version="1.1" id="Layer_1" class="weHelp" xmlns="http://www.w3.org/2000/svg" xmlns:xlink="http://www.w3.org/1999/xlink" x="0px" y="0px" viewBox="0 0 47.4 31.1" style="enable-background:new 0 0 47.4 31.1;" xml:space="preserve">
<path class="st0" d="M13.6,12.2c-0.2-0.1-1.2,0-1.3,0h-11c-0.3,0-0.6,0.1-0.9,0.4C0.1,12.9,0,13.2,0,13.5c0,0.3,0.1,0.6,0.4,0.9
		c0.3,0.3,0.6,0.4,0.9,0.4h10.6C12,13.9,12.7,13.1,13.6,12.2z"></path>
	<path class="st0" d="M4.6,10h10.7l2.9-2.6h-1.4H4.6C4.3,7.4,4,7.5,3.8,7.8C3.5,8.1,3.4,8.4,3.4,8.7c0,0.3,0.1,0.6,0.4,0.9
		C4,9.9,4.3,10,4.6,10z"></path>
	<path class="st0" d="M8.9,5.3h11.3l2.9-2.6h-1.4H8.9C8.5,2.7,8.3,2.8,8,3.1C7.7,3.3,7.6,3.6,7.6,4c0,0.3,0.1,0.6,0.4,0.9
		C8.3,5.1,8.5,5.3,8.9,5.3z"></path>
	<path class="st0" d="M12,17H4.2c-0.4,0-0.7,0.1-0.9,0.4s-0.4,0.5-0.4,0.9c0,0.4,0.1,0.7,0.4,0.9c0.2,0.2,0.5,0.4,0.9,0.4h10
		C12.2,18.7,12,17,12,17z"></path>
	<path class="st0" d="M16.1,21.8H8.1c-0.4,0-0.7,0.1-0.9,0.4c-0.3,0.2-0.4,0.5-0.4,0.9c0,0.4,0.1,0.7,0.4,0.9
		c0.3,0.2,0.6,0.4,0.9,0.4h7.9V21.8z"></path>
	<path class="st0" d="M46.9,14.1L41.8,9V3.2c0-1.1-0.9-1.9-1.9-1.9c-1.1,0-1.9,0.9-1.9,1.9v2l-3.8-3.8c-1.9-1.9-5.1-1.9-7,0
		L14.5,14.1c-0.7,0.8-0.7,2,0,2.7c0.8,0.8,2,0.8,2.7,0L29.9,4.1c0.4-0.4,1.1-0.4,1.6,0l12.7,12.7c0.4,0.4,0.9,0.6,1.4,0.6
		c0.5,0,1-0.2,1.4-0.6C47.6,16.1,47.6,14.9,46.9,14.1z"></path>
	<path class="st0" d="M31.3,7.7c-0.4-0.4-1-0.4-1.3,0L18.9,18.9c-0.2,0.2-0.3,0.4-0.3,0.7v8.1c0,1.9,1.5,3.4,3.4,3.4h5.5v-8.6h6.2
		v8.6h5.5c1.9,0,3.4-1.5,3.4-3.4v-8.1c0-0.3-0.1-0.5-0.3-0.7L31.3,7.7z"></path>
	<path class="st0" d="M16.2,26.5h-3.6c-0.4,0-0.7,0.1-0.9,0.4s-0.4,0.5-0.4,0.9c0,0.4,0.1,0.7,0.4,0.9s0.6,0.4,0.9,0.4h4.2
		C16.7,29,16.2,28.7,16.2,26.5z"></path>
</svg>