<?xml version="1.0" encoding="utf-8"?>
<!-- Generator: Adobe Illustrator 19.0.0, SVG Export Plug-In . SVG Version: 6.00 Build 0)  -->
<svg version="1.1" id="Layer_1" xmlns="http://www.w3.org/2000/svg" xmlns:xlink="http://www.w3.org/1999/xlink" x="0px" y="0px"
	 viewBox="396.1 139 1559.4 336.4" style="enable-background:new 396.1 139 1559.4 336.4;" xml:space="preserve">
<style type="text/css">
	.st0{fill:#FFFFFF;}
</style>
<g>
	<g>
		<g>
			<path class="st0" d="M898.2,327.1c-6.6,6.1-14.1,9.1-22.7,9.1c-5.7,0-11-1.1-16-3.2c-5-2.1-9.4-5.2-13.2-9
				c-3.8-3.9-6.7-8.6-8.9-14c-2.2-5.4-3.3-11.5-3.3-18c0-5.9,1.1-11.5,3.3-16.8c2.2-5.3,5.2-9.8,9-13.7c3.8-3.9,8.4-7,13.7-9.2
				c5.3-2.3,10.9-3.4,17-3.4c8,0,15,1.7,21,5c6,3.4,10.5,8,13.5,13.8l-14.8,11.2c-1.9-3.9-4.8-6.9-8.4-9c-3.7-2.1-7.7-3.2-12-3.2
				c-3.3,0-6.3,0.7-9,2c-2.7,1.3-5,3.2-7,5.6c-1.9,2.4-3.4,5.2-4.5,8.3c-1.1,3.2-1.6,6.6-1.6,10.2c0,3.7,0.6,7.2,1.7,10.3
				c1.1,3.2,2.7,5.9,4.7,8.2s4.4,4.1,7.2,5.4s5.9,1.9,9.3,1.9c7.8,0,14.8-3.6,21-10.8v-2.7h-16.8v-14.5h33.3v45.1h-16.5V327.1
				L898.2,327.1z"/>
			<path class="st0" d="M931.5,335.6v-86.2h19.9v68.8h41.8v17.5h-61.7V335.6z"/>
			<path class="st0" d="M1029.7,249.3h18l31.5,86.2h-20.4l-6.7-19.3h-26.8l-6.6,19.3h-20.4L1029.7,249.3z M1048.7,302.5l-10.1-30.5
				l-10.3,30.5H1048.7z"/>
			<path class="st0" d="M1141.7,274.6c-0.2-0.3-1.1-0.9-2.6-1.8c-1.5-0.9-3.3-1.8-5.5-2.8c-2.2-1-4.6-1.8-7.2-2.6
				c-2.6-0.7-5.2-1.1-7.8-1.1c-7.1,0-10.7,2.4-10.7,7.2c0,1.5,0.4,2.7,1.2,3.6c0.8,1,1.9,1.8,3.4,2.6s3.4,1.5,5.6,2.1
				c2.3,0.6,4.9,1.4,7.9,2.2c4.1,1.1,7.9,2.4,11.2,3.7c3.3,1.3,6.1,3,8.4,5c2.3,2,4.1,4.4,5.3,7.2c1.3,2.8,1.9,6.2,1.9,10.2
				c0,4.9-0.9,9-2.7,12.3c-1.8,3.4-4.2,6.1-7.2,8.1c-3,2.1-6.4,3.6-10.3,4.5c-3.9,0.9-7.9,1.4-12,1.4c-3.2,0-6.4-0.2-9.7-0.7
				c-3.3-0.5-6.6-1.2-9.7-2.1c-3.2-0.9-6.2-2-9.2-3.3c-3-1.3-5.7-2.8-8.2-4.5l8.7-17.4c0.3,0.4,1.4,1.2,3.2,2.3
				c1.8,1.1,4,2.3,6.6,3.4s5.6,2.1,8.8,3c3.2,0.9,6.5,1.3,9.8,1.3c7,0,10.6-2.1,10.6-6.4c0-1.6-0.5-3-1.6-4c-1.1-1.1-2.5-2-4.4-2.9
				c-1.9-0.8-4.1-1.6-6.6-2.4c-2.6-0.7-5.3-1.5-8.3-2.4c-4-1.2-7.4-2.5-10.3-3.9c-2.9-1.4-5.3-3.1-7.2-4.9c-1.9-1.9-3.3-4-4.3-6.4
				c-0.9-2.4-1.4-5.3-1.4-8.5c0-4.5,0.8-8.5,2.6-12c1.7-3.5,4-6.4,6.9-8.8s6.3-4.2,10.1-5.4c3.8-1.2,7.9-1.8,12.2-1.8
				c3,0,6,0.3,8.9,0.9s5.7,1.3,8.4,2.2c2.7,0.9,5.2,1.9,7.5,3c2.3,1.1,4.4,2.3,6.4,3.4L1141.7,274.6z"/>
			<path class="st0" d="M1227.5,327.1c-6.6,6.1-14.1,9.1-22.7,9.1c-5.7,0-11-1.1-16-3.2c-5-2.1-9.4-5.2-13.2-9
				c-3.8-3.9-6.7-8.6-8.9-14c-2.2-5.4-3.3-11.5-3.3-18c0-5.9,1.1-11.5,3.3-16.8c2.2-5.3,5.2-9.8,9-13.7c3.8-3.9,8.4-7,13.7-9.2
				c5.3-2.3,10.9-3.4,17-3.4c8,0,15,1.7,21,5c6,3.4,10.5,8,13.5,13.8l-14.8,11.2c-1.9-3.9-4.8-6.9-8.4-9c-3.7-2.1-7.7-3.2-12-3.2
				c-3.3,0-6.3,0.7-9,2c-2.7,1.3-5,3.2-7,5.6c-1.9,2.4-3.4,5.2-4.5,8.3c-1.1,3.2-1.6,6.6-1.6,10.2c0,3.7,0.6,7.2,1.7,10.3
				c1.1,3.2,2.7,5.9,4.7,8.2s4.4,4.1,7.2,5.4c2.8,1.3,5.9,1.9,9.3,1.9c7.8,0,14.8-3.6,21-10.8v-2.7h-16.8v-14.5h33.3v45.1h-16.5
				V327.1z"/>
			<path class="st0" d="M1298.6,336.3c-6.4,0-12.2-1.3-17.5-3.8c-5.3-2.5-9.8-5.8-13.5-9.9c-3.7-4.1-6.6-8.8-8.7-14
				c-2.1-5.3-3.1-10.7-3.1-16.3c0-5.7,1.1-11.1,3.2-16.4c2.1-5.3,5.1-9.9,9-13.9c3.8-4,8.4-7.2,13.7-9.6c5.3-2.4,11-3.6,17.2-3.6
				c6.4,0,12.2,1.3,17.5,3.8c5.3,2.5,9.8,5.8,13.5,10c3.7,4.1,6.6,8.8,8.6,14.1s3,10.6,3,16c0,5.7-1.1,11.1-3.2,16.4
				c-2.1,5.3-5.1,9.9-8.9,13.9c-3.8,4-8.3,7.2-13.6,9.7C1310.6,335.1,1304.8,336.3,1298.6,336.3z M1276.1,292.6
				c0,3.3,0.5,6.5,1.5,9.7c1,3.1,2.4,5.9,4.3,8.3c1.9,2.4,4.3,4.4,7.1,5.8c2.8,1.5,6.1,2.2,9.7,2.2c3.8,0,7.1-0.8,10-2.3
				c2.8-1.5,5.2-3.5,7-6c1.9-2.5,3.3-5.3,4.2-8.4c0.9-3.1,1.4-6.3,1.4-9.5c0-3.3-0.5-6.5-1.5-9.7c-1-3.1-2.4-5.9-4.4-8.3
				c-1.9-2.4-4.3-4.3-7.1-5.7c-2.8-1.4-6-2.1-9.7-2.1c-3.8,0-7.1,0.8-9.9,2.2c-2.8,1.5-5.1,3.5-7,5.9s-3.3,5.2-4.3,8.3
				C1276.6,286.2,1276.1,289.3,1276.1,292.6z"/>
			<path class="st0" d="M1382.3,249.5h18.3l8.7,27.6l8.7-27.6h18.5l-14.5,40.1l8.7,23.2l21.6-63.4h21.7l-34.5,86.2h-16.6l-13.7-33.8
				l-13.6,33.8H1379l-34.4-86.2h21.6l21.7,63.4l8.5-23.2L1382.3,249.5z"/>
			<path class="st0" d="M1520.8,335.6v-86.2h8.5v78.7h49.8v7.5H1520.8z"/>
			<path class="st0" d="M1624.5,336.2c-6,0-11.5-1.2-16.5-3.7s-9.3-5.7-12.8-9.8c-3.6-4.1-6.3-8.8-8.3-14
				c-1.9-5.3-2.9-10.6-2.9-16.2c0-5.7,1-11.3,3.1-16.5c2.1-5.3,4.9-9.9,8.6-14c3.6-4,7.9-7.3,12.9-9.7c4.9-2.4,10.3-3.6,16-3.6
				c6,0,11.5,1.3,16.5,3.8s9.2,5.9,12.8,10s6.3,8.8,8.2,14c1.9,5.2,2.9,10.5,2.9,16c0,5.8-1,11.3-3.1,16.5
				c-2.1,5.3-4.9,9.9-8.5,13.9s-7.9,7.2-12.8,9.6C1635.6,335,1630.3,336.2,1624.5,336.2z M1592.6,292.5c0,4.7,0.8,9.2,2.3,13.5
				c1.5,4.3,3.7,8.2,6.6,11.5c2.8,3.4,6.2,6,10.1,8s8.2,3,13,3c4.9,0,9.3-1.1,13.2-3.2c4-2.1,7.3-4.9,10.1-8.3
				c2.8-3.4,4.9-7.2,6.4-11.5c1.5-4.3,2.2-8.7,2.2-13.1c0-4.7-0.8-9.2-2.4-13.5c-1.6-4.3-3.8-8.2-6.6-11.5c-2.8-3.3-6.2-6-10.1-8
				s-8.2-3-12.9-3c-4.9,0-9.3,1-13.2,3.1c-4,2.1-7.3,4.8-10.1,8.2c-2.8,3.4-4.9,7.2-6.4,11.5C1593.3,283.6,1592.6,288,1592.6,292.5z
				"/>
			<path class="st0" d="M1678.9,291.9c0-5.2,0.9-10.3,2.7-15.5c1.8-5.1,4.5-9.7,8-13.8c3.5-4,7.8-7.3,12.9-9.9
				c5.1-2.6,10.9-3.8,17.4-3.8c7.7,0,14.3,1.7,19.7,5.2c5.5,3.5,9.5,8,12.1,13.6l-6.7,4.1c-1.4-2.8-3.1-5.2-5-7.2
				c-2-1.9-4.1-3.5-6.4-4.7c-2.3-1.2-4.6-2.1-7-2.6s-4.8-0.8-7.2-0.8c-5.2,0-9.8,1.1-13.7,3.2c-4,2.1-7.3,4.9-10,8.3
				s-4.8,7.2-6.1,11.5c-1.4,4.3-2.1,8.6-2.1,12.9c0,4.8,0.8,9.4,2.5,13.7c1.7,4.4,3.9,8.2,6.8,11.6c2.9,3.4,6.3,6,10.2,8
				c3.9,2,8.2,3,12.8,3c2.4,0,4.9-0.3,7.5-0.9c2.6-0.6,5-1.6,7.4-2.9c2.4-1.3,4.6-3,6.6-5s3.7-4.4,5.1-7.2l7,3.6
				c-1.4,3.2-3.3,6.1-5.8,8.6s-5.3,4.6-8.4,6.3c-3.1,1.7-6.3,3-9.8,3.9c-3.4,0.9-6.8,1.3-10.1,1.3c-5.9,0-11.3-1.3-16.3-3.9
				c-4.9-2.6-9.2-6-12.8-10.1c-3.6-4.2-6.3-8.9-8.3-14.2C1679.9,302.8,1678.9,297.4,1678.9,291.9z"/>
			<path class="st0" d="M1797.1,249.3h7.2l35.8,86.2h-9l-11.2-27h-38.8l-11.1,27h-9.1L1797.1,249.3z M1818,301.9l-17.4-42.6
				l-17.6,42.6H1818z"/>
			<path class="st0" d="M1856.1,335.6v-86.2h8.5v78.7h49.8v7.5H1856.1z"/>
		</g>
	</g>
	<g>
		<path class="st0" d="M876.9,374.7v38.6H872v-17.6h-21.3v17.6h-4.9v-38.6h4.9v16.7H872v-16.7H876.9z"/>
		<path class="st0" d="M925.7,413.6c-2.7,0-5.2-0.6-7.4-1.7c-2.2-1.1-4.1-2.6-5.7-4.4c-1.6-1.8-2.8-3.9-3.7-6.3
			c-0.9-2.4-1.3-4.8-1.3-7.2c0-2.6,0.5-5,1.4-7.4c0.9-2.4,2.2-4.4,3.8-6.3c1.6-1.8,3.6-3.3,5.8-4.3c2.2-1.1,4.7-1.6,7.3-1.6
			c2.7,0,5.2,0.6,7.4,1.7c2.2,1.1,4.1,2.6,5.7,4.5c1.6,1.8,2.8,3.9,3.7,6.3c0.9,2.3,1.3,4.7,1.3,7.2c0,2.6-0.5,5-1.4,7.4
			c-0.9,2.4-2.2,4.4-3.8,6.2c-1.6,1.8-3.5,3.2-5.8,4.3C930.8,413,928.3,413.6,925.7,413.6z M912.5,394c0,2,0.3,3.9,1,5.7
			c0.6,1.8,1.5,3.5,2.7,4.9c1.2,1.4,2.6,2.5,4.2,3.4c1.6,0.8,3.4,1.3,5.4,1.3c2.1,0,3.9-0.4,5.5-1.3c1.6-0.9,3-2,4.2-3.5
			c1.1-1.4,2-3.1,2.6-4.9c0.6-1.8,0.9-3.6,0.9-5.5c0-2-0.3-3.9-1-5.7c-0.6-1.8-1.5-3.4-2.7-4.8c-1.2-1.4-2.6-2.5-4.2-3.3
			c-1.6-0.8-3.4-1.3-5.4-1.3c-2.1,0-3.9,0.4-5.5,1.3c-1.6,0.9-3,2-4.2,3.4c-1.1,1.4-2,3-2.6,4.8C912.8,390.2,912.5,392.1,912.5,394z
			"/>
		<path class="st0" d="M1008.1,413.3v-29.9l-12.8,22.9h-2.8l-12.9-22.9v29.9h-4.9v-38.6h5.2l14,25.1l14-25.1h5.1v38.6H1008.1z"/>
		<path class="st0" d="M1072.4,408.9v4.4h-26.2v-38.6h25.7v4.4h-20.8v12.5h18.1v4.1h-18.1V409L1072.4,408.9L1072.4,408.9z"/>
		<path class="st0" d="M1170.4,403.3c0,1.5-0.3,2.8-0.9,4.1c-0.6,1.2-1.4,2.3-2.4,3.2c-1,0.9-2.2,1.5-3.6,2
			c-1.4,0.5-2.8,0.7-4.4,0.7h-18.3v-38.6h19.2c1.3,0,2.6,0.3,3.6,0.9c1.1,0.6,2,1.3,2.8,2.3c0.8,1,1.4,2,1.8,3.2
			c0.4,1.2,0.6,2.4,0.6,3.6c0,1.9-0.5,3.7-1.4,5.3c-1,1.6-2.3,2.8-4.1,3.6c2.2,0.7,4,1.9,5.2,3.6
			C1169.8,398.9,1170.4,400.9,1170.4,403.3z M1145.6,378.9v12.9h12.3c0.9,0,1.7-0.2,2.4-0.5c0.7-0.3,1.4-0.8,1.9-1.4
			c0.5-0.6,0.9-1.3,1.3-2c0.3-0.8,0.5-1.6,0.5-2.5c0-0.9-0.1-1.8-0.4-2.6c-0.3-0.8-0.7-1.5-1.2-2.1c-0.5-0.6-1.1-1-1.8-1.4
			c-0.7-0.4-1.5-0.5-2.3-0.5h-12.7V378.9z M1165.4,402.5c0-0.9-0.2-1.7-0.5-2.5c-0.3-0.8-0.7-1.5-1.3-2.1c-0.5-0.6-1.2-1.1-1.9-1.5
			c-0.7-0.4-1.5-0.5-2.4-0.5h-13.8v13.3h13.4c0.9,0,1.7-0.2,2.5-0.5c0.8-0.4,1.4-0.8,2-1.4c0.6-0.6,1-1.3,1.4-2.1
			C1165.2,404.4,1165.4,403.3,1165.4,402.5z"/>
		<path class="st0" d="M1217.1,409.2c2.2,0,4.1-0.4,5.6-1.3c1.5-0.9,2.7-2,3.6-3.4c0.9-1.4,1.5-3,1.9-4.8s0.5-3.6,0.5-5.5v-19.5h4.9
			v19.5c0,2.6-0.3,5.1-0.9,7.4c-0.6,2.3-1.5,4.4-2.9,6.2c-1.3,1.8-3,3.2-5.1,4.2s-4.6,1.6-7.6,1.6c-3.1,0-5.7-0.5-7.8-1.6
			c-2.1-1.1-3.8-2.5-5.1-4.3c-1.3-1.8-2.2-3.9-2.8-6.2s-0.8-4.7-0.8-7.2v-19.5h4.9v19.5c0,1.9,0.2,3.8,0.6,5.6
			c0.4,1.8,1,3.4,1.9,4.8c0.9,1.4,2.1,2.5,3.5,3.3S1214.9,409.2,1217.1,409.2z"/>
		<path class="st0" d="M1267.7,374.7l11.7,20.1l11.8-20.1h5.3l-14.7,24.5v14.1h-4.9v-14.2l-14.6-24.4H1267.7z"/>
		<path class="st0" d="M1352,408.9v4.4h-26.2v-38.6h25.7v4.4h-20.8v12.5h18.1v4.1h-18.1V409L1352,408.9L1352,408.9z"/>
		<path class="st0" d="M1382.6,413.3v-38.6h16.5c1.7,0,3.3,0.4,4.7,1.1s2.7,1.7,3.7,2.8c1,1.2,1.8,2.5,2.4,4c0.6,1.5,0.9,3,0.9,4.5
			c0,1.3-0.2,2.6-0.6,3.9c-0.4,1.3-0.9,2.4-1.6,3.4c-0.7,1-1.6,1.9-2.6,2.6s-2.1,1.3-3.3,1.6l9.4,14.8h-5.5l-8.8-13.9h-10.2v13.9h-5
			V413.3z M1387.5,395.1h11.7c1,0,1.9-0.2,2.7-0.7c0.8-0.4,1.5-1,2.1-1.8c0.6-0.7,1-1.6,1.4-2.6c0.3-1,0.5-2,0.5-3
			c0-1.1-0.2-2.1-0.6-3.1c-0.4-1-0.9-1.8-1.5-2.6c-0.6-0.7-1.4-1.3-2.2-1.7c-0.9-0.4-1.8-0.6-2.7-0.6h-11.4V395.1z"/>
		<path class="st0" d="M1465,382.8c-0.4-0.5-1-1-1.7-1.5s-1.5-0.9-2.4-1.3c-0.9-0.4-1.9-0.7-3-0.9s-2.2-0.4-3.3-0.4
			c-3,0-5.2,0.6-6.6,1.7c-1.4,1.1-2.1,2.7-2.1,4.6c0,1.1,0.2,1.9,0.6,2.6c0.4,0.7,1,1.3,1.9,1.8s1.9,0.9,3.2,1.3
			c1.3,0.4,2.8,0.7,4.5,1.1c2,0.4,3.8,0.9,5.4,1.5c1.6,0.6,3,1.3,4.1,2.1c1.1,0.8,2,1.8,2.6,3c0.6,1.2,0.9,2.7,0.9,4.4
			c0,1.8-0.4,3.5-1.1,4.8c-0.7,1.4-1.7,2.5-3,3.4c-1.3,0.9-2.7,1.5-4.4,2c-1.7,0.4-3.6,0.6-5.5,0.6c-3,0-5.8-0.5-8.5-1.4
			c-2.7-0.9-5.1-2.3-7.3-4.1l2.3-4.1c0.6,0.6,1.3,1.2,2.3,1.8c0.9,0.6,2,1.2,3.2,1.7c1.2,0.5,2.4,0.9,3.8,1.2
			c1.4,0.3,2.8,0.5,4.3,0.5c2.8,0,4.9-0.5,6.4-1.5s2.3-2.4,2.3-4.4c0-1.1-0.2-2-0.7-2.7s-1.2-1.4-2.1-1.9s-2.1-1-3.5-1.4
			s-3-0.8-4.8-1.3c-2-0.5-3.7-1-5.2-1.5s-2.7-1.2-3.7-2c-1-0.8-1.8-1.7-2.3-2.8s-0.8-2.4-0.8-3.9c0-1.8,0.3-3.5,1-4.9
			c0.7-1.4,1.7-2.6,2.9-3.6c1.2-1,2.7-1.7,4.4-2.2c1.7-0.5,3.6-0.7,5.5-0.7c2.6,0,5,0.4,7.1,1.2c2.1,0.8,4,1.9,5.6,3.2L1465,382.8z"
			/>
	</g>
	<rect id="XMLID_1_" x="1520.7" y="390.8" class="st0" width="395.8" height="4"/>
	<g id="XMLID_21_">
		<path id="XMLID_34_" class="st0" d="M723.1,358.9c-19.4,40.9-61.1,69.3-109.3,69.3c-47.6,0-88.9-27.6-108.6-67.7l-34.3,18.4
			c26.3,52.3,80.4,88.1,142.9,88.1c63.6,0,118.5-37.1,144.2-90.9L723.1,358.9z"/>
		<path id="XMLID_31_" class="st0" d="M613.7,147.4c-88.2,0-159.8,71.5-159.8,159.8c0,20.4,3.8,39.9,10.8,57.8
			c0.6,1.6,1.3,3.3,2,4.9l29.6-15.6l4.9-2.7c-1.4-3.4-2.5-6.9-3.6-10.5c-3.1-10.7-4.8-22.1-4.8-33.8c0-66.7,54.3-120.9,120.9-120.9
			c51.2,0,95.1,32,112.7,77l44.3,14C756.7,203.3,691.8,147.4,613.7,147.4z"/>
		<path id="XMLID_27_" class="st0" d="M773.3,324c-1.2,22.3-10.7,42.5-10.7,42.5l-148.2-74.6l-118.1,62.3l-29.6,15.6L435,386.6
			l29.7-21.6l32.9-23.9l62.8-45.7v-24h10.2l4.6,6.9l-5.6-1.2v11.3l44.8-36.8L773.3,324z"/>
		<g id="XMLID_2_">
			<rect id="XMLID_26_" x="588.5" y="321" class="st0" width="21.4" height="21.4"/>
			<rect id="XMLID_25_" x="617.5" y="321" class="st0" width="21.4" height="21.4"/>
			<rect id="XMLID_24_" x="588.5" y="351.4" class="st0" width="21.4" height="21.4"/>
			<rect id="XMLID_23_" x="617.5" y="351.4" class="st0" width="21.4" height="21.4"/>
		</g>
	</g>
</g>
</svg>
