<svg version="1.1" id="Layer_1" class="weHelp" xmlns="http://www.w3.org/2000/svg" xmlns:xlink="http://www.w3.org/1999/xlink" x="0px" y="0px" viewBox="0 0 37.3 37.3" style="enable-background:new 0 0 37.3 37.3;" xml:space="preserve">
<path class="st0" d="M9.3,15.5v3.1H7.8v1.5l-3.7,3.7C1.4,21.2,0,17.9,0,14c0-3.9,1.4-7.2,4.1-9.9C6.8,1.4,10.1,0,14,0
	c3.9,0,7.2,1.4,9.9,4.1c2.7,2.7,4.1,6,4.1,9.9c0,2.2-0.5,4.3-1.5,6.3v-0.1l-6.4,6.4c-0.7,0.3-1.3,0.6-2,0.8l-5.6-5.6h6.2v-3.1h-6.2
	v-3.1h3.1v-3.1h-3.1v-1.6c0-0.4,0.1-0.7,0.4-1.1c0.3-0.3,0.7-0.5,1.1-0.5s0.8,0.2,1.1,0.5c0.3,0.3,0.4,0.7,0.4,1.1h3.1
	c0-1.3-0.5-2.4-1.4-3.3c-0.9-0.9-2-1.4-3.3-1.4c-1.3,0-2.4,0.5-3.3,1.4c-0.9,0.9-1.4,2-1.4,3.3v1.6H7.8v3.1H9.3z M34.2,28h3.1v9.3
	H28v-3.1h4l-5.5-5.5l-6.7,6.6c-0.3,0.3-0.7,0.5-1.1,0.5c-0.4,0-0.8-0.2-1.1-0.5L8.2,26l2.2-2.2l8.2,8.2l6.7-6.6
	c0.3-0.3,0.6-0.5,1.1-0.5s0.8,0.2,1.1,0.5l6.6,6.6V28z"></path>
</svg>