<svg version="1.1" id="Layer_1" class="weHelp" xmlns="http://www.w3.org/2000/svg" xmlns:xlink="http://www.w3.org/1999/xlink" x="0px" y="0px" viewBox="0 0 37.6 30.9" style="enable-background:new 0 0 37.6 30.9;" xml:space="preserve">
	<path class="st0" d="M13.7,6.4c1.8,0,3.2-1.4,3.2-3.2c0-1.8-1.4-3.2-3.2-3.2c-1.8,0-3.2,1.4-3.2,3.2C10.5,5,11.9,6.4,13.7,6.4z"></path>
	<path class="st0" d="M27.3,3.7c0-1.8-1.4-3.2-3.2-3.2c-1.8,0-3.2,1.4-3.2,3.2c0,1.8,1.4,3.2,3.2,3.2C25.9,6.9,27.3,5.5,27.3,3.7z"></path>
	<path class="st0" d="M35.8,12.9c0-1.2-0.9-2.1-2.1-2.1s-2.1,0.9-2.1,2.1s0.9,2.1,2.1,2.1S35.8,14.1,35.8,12.9z"></path>
	<path class="st0" d="M33.7,15c-1.5,0-2.4,1.3-3.7,2c-0.2-5.5-2.8-10.1-5.9-10.1c-2.1,0-3.9,1.9-5,4.8c-1.1-3.1-3.2-5.3-5.5-5.3
		c-3.5,0-6.3,4.5-6.5,10.2C6.3,15.9,5.5,15,4.2,15C1.9,15,0,18.1,0,21.9C0,22,0,22,0,22.1c0,0.4,0.3,0.7,0.7,0.7
		c0.4,0,0.7-0.4,0.7-0.7s0-0.5,0-0.8c0-1.2,0.3-2.2,0.7-3v4.6v1v6.3c0,0.4,0.3,0.7,0.7,0.7h0.5c0.4,0,0.7-0.3,0.7-0.7v-4.8h0.4v4.8
		c0,0.4,0.3,0.7,0.7,0.7h0.5c0.4,0,0.7-0.3,0.7-0.7v-6.3v-1V18c0.5,0.3,1,0.6,1.9,0.5c0,0,0,0,0,0c0.2,0,0.3-0.1,0.5-0.1
		c0.4-0.1,0.7-0.6,0.7-1c0,0-0.1,0-0.1,0c0,0,0,0,0,0c0-0.5-0.1-0.8-0.1-1.2c0-2,0.5-3.8,1.3-5.1v7.7V20v9.7c0,0.7,0.5,1.2,1.2,1.2
		h0.4c0.7,0,1.2-0.6,1.2-1.3v-7.1h0.8v7.2c0,0.7,0.5,1.2,1.2,1.2h0.4c0.6,0,1.2-0.6,1.2-1.3V18.8c0-0.2,0-0.3-0.1-0.5v-7
		c0.7,1.3,1.2,3,1.2,4.9c0,0.4-0.1,1.2-0.1,1.2c0,0.5,0.3,0.9,0.7,1c0.2,0.1,0.3,0.2,0.6,0.2c0.5,0,1-0.6,1-1c0-0.5-0.1-0.8-0.1-1.2
		c0-1.6,0.3-3,0.8-4.2c-0.2,6.8-2.7,10.3-1,10.3h1v7.2c0,0.7,0.5,1.2,1.2,1.2h0.4c0.7,0,1.2-0.6,1.2-1.3v-7.1h0.8v7.2
		c0,0.7,0.5,1.2,1.2,1.2h0.4c0.7,0,1.2-0.6,1.2-1.3v-7.1h0.8c1.7,0-0.6-3.5-0.8-10.3c0.5,1.2,0.8,2.6,0.8,4.2c0,0.4-0.1,1.2-0.1,1.2
		c0,0.6,0.4,0.9,0.9,1c0.8,0.7,1.7-0.2,2.8-1c-0.1,0.2-0.1,0.4-0.1,0.5c0,4.8-1.9,7.2-0.7,7.2h0.6v5c0,0.3,0.3,0.6,0.6,0.6h0.7
		c0.4,0,0.6-0.3,0.6-0.6v-5h0.5v5c0,0.3,0.3,0.6,0.6,0.6h0.7c0.3,0,0.6-0.3,0.6-0.6v-5h0.5c1.2,0-0.4-2.3-0.5-6.9
		c0.4,0.8,0.6,1.8,0.6,2.9c0,0.3,0,0.8,0,0.8c0,0.4,0.3,0.7,0.7,0.7c0.4,0,0.5-0.3,0.5-0.7C37.6,18.3,35.8,15,33.7,15z"></path>
	<path class="st0" d="M6.3,12.9c0-1.2-0.9-2.1-2.1-2.1s-2.1,0.9-2.1,2.1S3,15,4.2,15S6.3,14.1,6.3,12.9z"></path>
</svg>