<svg version="1.1" id="Layer_1" class="weHelp" xmlns="http://www.w3.org/2000/svg" xmlns:xlink="http://www.w3.org/1999/xlink" x="0px" y="0px" viewBox="0 0 37.3 29.2" style="enable-background:new 0 0 37.3 29.2;" xml:space="preserve">
<path class="st0" d="M35.3,16.6c0.3,0.7,0.3,1.5,0,2.2c-0.3,0.7-0.8,1.2-1.6,1.5L27.4,23c-0.3,0.1-0.7,0.2-1.1,0.2
	c-1.3,0-2.1-0.6-2.6-1.8l-0.5-1.2c-0.3-0.8-0.2-1.5,0.4-2c0,0-0.1-0.1-0.1-0.1L23,17.1c-0.1,0-0.2,0-0.3,0c-0.5,0-0.9-0.2-1.1-0.6
	l-0.3,0.1c-0.1,0-0.3,0.1-0.5,0.1c-0.2,0-0.3,0-0.5-0.1c-0.2,0-0.4-0.2-0.5-0.4l-4.6,1.9c0,0.5-0.3,0.8-0.7,1l-12,5
	c-0.1,0-0.3,0.1-0.5,0.1c-0.2,0-0.3,0-0.5-0.1c-0.3-0.1-0.5-0.4-0.7-0.7l-0.9-2.3c-0.1-0.3-0.1-0.7,0-0.9c0.1-0.3,0.3-0.5,0.6-0.7
	l12-4.9c0.3-0.1,0.6-0.1,0.9,0c0.1,0,0.2,0.1,0.3,0.1l4.7-1.9c0-0.2,0-0.4,0.1-0.6c0.1-0.3,0.3-0.6,0.7-0.7l0.3-0.1
	c-0.1-0.3-0.1-0.6,0.1-0.8c0.1-0.2,0.3-0.4,0.5-0.6l-0.4-0.9c0-0.1-0.1-0.2-0.1-0.2c-0.8,0-1.4-0.4-1.7-1.2l-0.5-1.2
	c-0.3-0.7-0.3-1.5,0-2.2s0.8-1.3,1.6-1.6l6.3-2.6C25.8,0.1,26.1,0,26.5,0c1.3,0,2.1,0.6,2.6,1.8L29.7,3c0.3,0.7,0.1,1.4-0.4,2
	c0,0,0.1,0.1,0.1,0.2l0.4,0.9c0.7-0.2,1.2,0,1.5,0.7l2,4.7c0.1,0.3,0.1,0.6,0,0.9c-0.1,0.3-0.3,0.5-0.5,0.7l0.4,0.9
	c0,0,0.1,0.1,0.1,0.2c0.8,0,1.3,0.4,1.7,1.1L35.3,16.6z M37.3,26.1v1.8c0,0.3-0.1,0.6-0.4,0.9s-0.5,0.4-0.9,0.4H21.5
	c-0.3,0-0.6-0.1-0.9-0.4c-0.2-0.2-0.4-0.5-0.4-0.9v-1.8c0-0.3,0.1-0.6,0.4-0.9c0.2-0.2,0.5-0.4,0.9-0.4h14.6c0.3,0,0.6,0.1,0.9,0.4
	S37.3,25.8,37.3,26.1z"></path>
</svg>