<svg version="1.1" id="Layer_1" class="weHelp" xmlns="http://www.w3.org/2000/svg" xmlns:xlink="http://www.w3.org/1999/xlink" x="0px" y="0px" viewBox="0 0 37.2 37.3" style="enable-background:new 0 0 37.2 37.3;" xml:space="preserve">
<path class="st0" d="M20.9,19.3c0,0-0.1,0.1-0.3,0.1l-5.5,5.1L15,31.9l-1.7,1.7c0,0-0.2,0.1-0.4,0.1c-0.2,0-0.3-0.1-0.4-0.2
	c-0.1-0.1-0.2-0.3-0.2-0.4l-1-4.1c0-0.1,0-0.2-0.1-0.3c-0.1,0-0.2-0.1-0.3-0.1c-0.2,0-0.5,0.1-0.7,0.3c-0.1,0.2-0.3,0.4-0.4,0.5
	c-0.4,0.3-1,0.5-1.7,0.5c-0.6,0-0.9-0.3-0.9-0.8c0-0.3,0-0.6,0.1-0.9c0.1-0.3,0.2-0.5,0.4-0.7l0.7-0.8c0,0,0.1-0.1,0.1-0.1
	c0.1,0,0.1-0.1,0.1-0.2c0-0.1,0-0.2-0.1-0.3c-0.1-0.1-0.2-0.1-0.3-0.1l-4.2-1c-0.2-0.1-0.4-0.3-0.4-0.7v-0.1v-0.2l1.6-1.6
	c0.1,0,0.2,0,0.2-0.1l0.1-0.1h6.8c0,0,0.1,0,0.2-0.1c0.1,0,0.1-0.1,0.1-0.1l5-5.4c0,0,0.1-0.1,0.1-0.2c0-0.3-0.1-0.5-0.3-0.6
	L0.2,10.1C0.1,10.1,0,10,0,9.9c0-0.1,0-0.2,0-0.3V9.4c0-0.1,0-0.2,0.1-0.2l1.4-1.3c0,0,0-0.1,0.1-0.1c0.1,0,0.2-0.1,0.2-0.1h24.3
	L32,1.4c0.4-0.4,1-0.8,1.6-1C34.3,0.1,34.9,0,35.4,0c0.4,0,0.8,0.1,1.1,0.3c0.3,0.2,0.6,0.5,0.7,1v0.3v0.3c0,0.5-0.1,1-0.2,1.6
	c-0.1,0.6-0.4,1.1-0.8,1.4L29.8,11c-0.1,0-0.1,0.1-0.1,0.3c0,0.1,0,0.2,0,0.3v23.2l-0.1,0.4c0,0.2,0,0.4,0,0.4c0,0,0,0.1-0.1,0.2
	c0,0.1-0.1,0.1-0.1,0.2l-1.2,1.2c-0.2,0.1-0.3,0.2-0.4,0.2c-0.2,0-0.4-0.1-0.5-0.4l-5.6-17.1c0-0.1-0.1-0.3-0.2-0.4
	C21.2,19.4,21.1,19.3,20.9,19.3z"></path>
</svg>